<?xml version="1.0" encoding="UTF-8"?>
<svg version="1.1" xmlns="http://www.w3.org/2000/svg" width="512" height="512">
<path d="M0 0 C1.3523497 -0.00506001 2.70469266 -0.01229996 4.05702055 -0.02149814 C7.73076806 -0.04024096 11.40384021 -0.02829019 15.07756948 -0.01077521 C19.05581086 0.0026929 23.03395946 -0.01287174 27.01219177 -0.02459717 C34.78822349 -0.04290723 42.56400273 -0.03450649 50.34002639 -0.01650894 C56.66254798 -0.00244427 62.98500135 0.00140157 69.30753708 -0.00195122 C70.66080947 -0.00266738 70.66080947 -0.00266738 72.04142069 -0.00339801 C73.87454945 -0.00442441 75.7076782 -0.00547977 77.54080693 -0.00656378 C93.72373727 -0.01511716 109.90654623 0.00150092 126.08944702 0.03126526 C141.77211605 0.06010891 157.4546103 0.06717989 173.13729858 0.05177307 C190.24140865 0.0349927 207.34543588 0.03099468 224.44954813 0.04848343 C226.2750647 0.0503277 228.10058128 0.05216243 229.92609787 0.0539875 C230.82414355 0.05489959 231.72218924 0.05581168 232.64744843 0.05675141 C238.95934253 0.06234465 245.27119603 0.05906105 251.58308792 0.05244255 C259.2793579 0.04469229 266.97545618 0.05152301 274.67169167 0.07661759 C278.59427735 0.08907238 282.51659626 0.09530829 286.43919182 0.08407593 C290.03668124 0.07396936 293.63364084 0.08262775 297.23106627 0.10565711 C299.13426677 0.11318634 301.0375143 0.10132673 302.94068682 0.08855337 C317.39241671 0.22686592 328.2128815 5.18022745 338.73300171 14.94068909 C349.85455771 26.69176712 351.4338453 39.63574718 351.37068176 55.16331482 C351.37485908 56.83806563 351.38033878 58.51281362 351.38700157 60.18755639 C351.40142267 64.77089131 351.3972219 69.35404591 351.38983476 73.93739057 C351.38509712 78.88774622 351.39761822 83.83806319 351.40785217 88.78840637 C351.42503386 98.47929996 351.42588148 108.17012868 351.42063927 117.86103354 C351.41659514 125.73922706 351.41804402 133.61740142 351.42338753 141.49559402 C351.42413595 142.61757111 351.42488437 143.7395482 351.42565547 144.8955246 C351.42718698 147.17494249 351.42872532 149.45436037 351.43027044 151.73377825 C351.44399322 173.10186647 351.43855936 194.46991806 351.42708523 215.83800544 C351.41715325 235.37760882 351.43009333 254.9171175 351.45401942 274.45670627 C351.47841419 294.53063094 351.48801734 314.60451151 351.48136669 334.6784507 C351.4778753 345.94417393 351.48010131 357.20982434 351.49761772 368.47553635 C351.5123444 378.065813 351.51296899 387.65596554 351.49554681 397.24623977 C351.48703832 402.13686715 351.48488367 407.02727286 351.50019836 411.91788864 C351.51405977 416.39998686 351.50926363 420.88167381 351.48995913 425.36374833 C351.48620327 426.98007096 351.48910909 428.59642665 351.49957078 430.21271978 C351.59673871 446.38206818 347.83098576 458.34908246 336.67050171 470.37818909 C326.01591012 480.46199898 314.13603266 483.08781898 299.87135315 483.01586914 C298.58157871 483.02125468 297.29180427 483.02664022 295.96294576 483.03218895 C292.40766633 483.04656997 288.85262016 483.04242204 285.29732835 483.03502214 C281.45329865 483.03027439 277.60931825 483.04281454 273.76530457 483.05303955 C266.24379292 483.07020214 258.72236491 483.07107276 251.20083877 483.06582665 C245.08418921 483.06177859 238.9675643 483.06323605 232.85091591 483.06857491 C231.97901005 483.06932333 231.1071042 483.07007175 230.20877695 483.07084285 C228.4372548 483.0723744 226.66573264 483.07391274 224.8942105 483.07545782 C208.29501842 483.08917394 191.69587352 483.08375166 175.09668253 483.07227261 C159.92911607 483.06234353 144.76167167 483.07527684 129.59412404 483.0992068 C114.00069088 483.12362231 98.40731451 483.1331995 82.81386262 483.12655407 C74.0671228 483.12306699 65.32047677 483.12525995 56.57375145 483.1428051 C49.12702454 483.15755788 41.68045749 483.15812258 34.23373362 483.14073419 C30.43862914 483.13224659 26.64380984 483.13001922 22.84872055 483.14538574 C18.72411843 483.16187887 14.60019861 483.14702911 10.4756012 483.12939453 C9.29074967 483.13899954 8.10589815 483.14860454 6.88514203 483.15850061 C-10.66074941 483.00481463 -24.75034436 475.8317213 -37.01699829 463.62818909 C-37.9741272 462.72326721 -37.9741272 462.72326721 -38.95059204 461.80006409 C-50.94787875 449.50885722 -53.32104975 433.23862689 -53.2776947 416.85160828 C-53.28071721 415.23490723 -53.2846072 413.6182076 -53.28928727 412.0015105 C-53.29956312 407.56944977 -53.29738649 403.13746997 -53.29310668 398.70540261 C-53.29063871 393.92138565 -53.29965449 389.13738813 -53.30714417 384.3533783 C-53.31989117 374.98507552 -53.32168486 365.61680141 -53.3193439 356.24849142 C-53.3175606 348.63339426 -53.31931064 341.0183058 -53.32356834 333.40320969 C-53.32416353 332.31923923 -53.32475872 331.23526877 -53.32537195 330.11845072 C-53.3265837 327.91633631 -53.32779784 325.71422189 -53.32901432 323.51210748 C-53.33988985 302.86229691 -53.33772729 282.21250268 -53.33162948 261.5626912 C-53.32646018 242.67474455 -53.33771609 223.78684948 -53.3567277 204.89891304 C-53.37610301 185.50081373 -53.38436264 166.10273883 -53.38060445 146.70462978 C-53.37869195 135.81565903 -53.38118467 124.92673217 -53.39531898 114.03776932 C-53.40722982 104.7680026 -53.40864097 95.49830681 -53.39652882 86.22853912 C-53.39063811 81.5002264 -53.38954607 76.77204342 -53.40153122 72.04373932 C-53.41238289 67.7122289 -53.40929517 63.38095666 -53.39526954 59.04945742 C-53.39262065 57.48559907 -53.39499519 55.92172211 -53.4030054 54.35788204 C-53.44271341 46.02482812 -53.13424122 38.46051777 -50.01699829 30.62818909 C-49.59776949 29.56658434 -49.59776949 29.56658434 -49.17007142 28.48353302 C-44.90368367 18.31017486 -34.93914457 8.77750962 -24.97731268 4.24524456 C-16.43215907 1.02156362 -9.09428755 -0.08798408 0 0 Z " fill="#008732" transform="translate(107.01699829101563,14.371810913085938)"/>
<path d="M0 0 C96.03 0 192.06 0 291 0 C287.02026583 5.30631222 283.0586837 10.3620028 278.6875 15.3125 C274.88723976 19.65442629 271.12888341 24.0125268 267.5 28.5 C263.38106834 33.58809206 259.09852666 38.52003823 254.796875 43.453125 C251.63520769 47.08756499 248.53142528 50.75529818 245.5 54.5 C241.92457446 58.91670214 238.23377879 63.21759307 234.5 67.5 C227.01525289 76.09343813 219.74885026 84.81020214 213 94 C213.845625 94.78761719 214.69125 95.57523437 215.5625 96.38671875 C230.63524587 110.72985119 240.03645314 127.38636331 241.1953125 148.5703125 C242.24524237 153.04525631 243.84824585 153.98841163 247.625 156.5 C262.7401686 167.0264362 274.18377397 183.37036195 277.67333984 201.72753906 C280.5000344 221.39186861 277.74800385 242.04307683 265.9921875 258.52734375 C255.45447266 271.60650746 244.33603469 281.60714035 228 287 C227.22462891 287.25749023 226.44925781 287.51498047 225.65039062 287.78027344 C218.30287559 290.02401351 211.40791241 290.54288778 203.75 290.5 C202.56067871 290.49427979 201.37135742 290.48855957 200.14599609 290.48266602 C190.8622277 290.29440443 183.44746244 289.0486009 175 285 C173.35257812 284.25556641 173.35257812 284.25556641 171.671875 283.49609375 C153.25982636 274.44277599 140.03851954 259.25105013 133 240 C131.17847098 233.84696103 129.97056558 228.10420305 130 221.6875 C129.73548038 218.33511865 129.32363073 217.30718489 126.84765625 214.95703125 C124.93911326 213.61596528 123.00354945 212.3127795 121.046875 211.04296875 C107.17655898 201.74274404 99.77720207 187.58876463 95 172 C94.75378906 171.24976563 94.50757813 170.49953125 94.25390625 169.7265625 C92.61987736 164.20467177 92.81159702 158.69395678 93 153 C75.51514537 163.91253339 64.29417397 178.6393555 58.125 198.375 C56.77437073 204.3965555 56.68681876 210.41693029 56.625 216.5625 C56.61098145 217.5201123 56.59696289 218.47772461 56.58251953 219.46435547 C56.67178764 232.83397207 61.2664911 246.47760461 69.1796875 257.28125 C70.28559495 259.59838941 69.80492349 260.59903949 69 263 C67.26081466 265.23069424 65.50473701 267.3323456 63.625 269.4375 C62.5242872 270.69491664 61.42403667 271.95273807 60.32421875 273.2109375 C59.76653809 273.84483398 59.20885742 274.47873047 58.63427734 275.13183594 C56.20104882 277.91329167 53.8178951 280.73583482 51.4375 283.5625 C50.53005765 284.63681145 49.62250551 285.71103017 48.71484375 286.78515625 C48.04364502 287.58010498 48.04364502 287.58010498 47.35888672 288.39111328 C45.07453814 291.09572289 42.78710492 293.79772127 40.5 296.5 C39.58331874 297.58332099 38.66665207 298.66665432 37.75 299.75 C32.25 306.25 26.75 312.75 21.25 319.25 C20.56828735 320.0558252 20.56828735 320.0558252 19.87280273 320.87792969 C18.9638987 321.95186859 18.05456221 323.02544166 17.14477539 324.09863281 C14.73051 326.94771742 12.32595641 329.80436358 9.93359375 332.671875 C9.43214844 333.27064453 8.93070313 333.86941406 8.4140625 334.48632812 C7.44906073 335.63896913 6.48670213 336.79382957 5.52734375 337.95117188 C2.2249244 341.8875378 2.2249244 341.8875378 0 343 C0 229.81 0 116.62 0 0 Z " fill="#4CC56D" transform="translate(119,15)"/>
<path d="M0 0 C0.33 0 0.66 0 1 0 C1.33 112.86 1.66 225.72 2 342 C7.34226153 336.06415386 12.48107085 330.23493516 17.484375 324.05078125 C20.42924949 320.47943501 23.45716976 316.98785513 26.5 313.5 C30.23415168 309.21793708 33.92459104 304.91668165 37.5 300.5 C41.07541411 296.08331198 44.76596211 291.78216829 48.5 287.5 C53.12023388 282.2014011 57.64575075 276.85091912 62.05078125 271.37109375 C63.84112209 269.19326431 65.71261772 267.13242407 67.625 265.0625 C70.28171543 262.3796279 70.28171543 262.3796279 69.75732422 260.02978516 C68.50430935 256.67144679 66.78396471 253.54558106 65.125 250.375 C62.05309108 244.38202572 59.5441207 238.58484529 58 232 C57.83016602 231.39937744 57.66033203 230.79875488 57.48535156 230.17993164 C53.38657767 211.770499 58.28350362 192.46158746 67.88818359 176.72070312 C74.08763425 167.12612072 82.16509836 158.85410812 92 153 C92.66 153 93.32 153 94 153 C94.08636719 153.98097656 94.17273438 154.96195313 94.26171875 155.97265625 C96.52318258 178.74090341 105.6148017 196.37187598 122.98046875 211.4296875 C125.10263357 213.16355665 125.10263357 213.16355665 128.1640625 214.75 C131 217 131 217 131.91796875 220.3203125 C132.00691406 221.57585937 132.09585938 222.83140625 132.1875 224.125 C134.00305055 242.92248052 142.68266411 259.84464093 156.77734375 272.4921875 C170.57865504 283.49618603 186.43324365 289.59744062 204.0625 289.5 C205.24972656 289.49500488 206.43695313 289.49000977 207.66015625 289.48486328 C227.57507848 289.09251767 244.19599746 281.65119992 258.4140625 267.6171875 C272.67085843 252.40675974 279.07306416 233.78357282 278.69091797 213.04345703 C277.74998281 192.52469128 269.1947563 175.61514164 254.56103516 161.35888672 C252.20166884 159.30504986 249.55276155 157.79134932 246.875 156.1875 C243.29497468 153.75819711 242.18303573 152.68188312 241.046875 148.44921875 C240.69594842 145.69338318 240.53031087 142.93624118 240.36328125 140.1640625 C239.43073394 125.90893998 230.90121409 112.53467096 221.30859375 102.44921875 C218.42697235 99.39206711 215.71351561 96.20615302 213 93 C213.81082031 92.06800781 214.62164062 91.13601562 215.45703125 90.17578125 C222.24711366 82.3617156 228.98748687 74.50973983 235.65722656 66.59277344 C237.93421439 63.89185188 240.21745794 61.19622756 242.5 58.5 C243.41669584 57.41669135 244.33336253 56.33335804 245.25 55.25 C254.41666667 44.41666667 263.58333333 33.58333333 272.75 22.75 C273.20383057 22.21270264 273.65766113 21.67540527 274.12524414 21.12182617 C275.03730689 20.04584804 275.95313428 18.97304907 276.87280273 17.90356445 C279.27662431 15.09803758 281.5786129 12.25692453 283.78515625 9.29296875 C290.36136917 0.6266864 290.36136917 0.6266864 294.4921875 -0.953125 C297.23564842 -1.07583571 299.34754255 -0.70998109 302 0 C302.97066406 0.22945312 303.94132812 0.45890625 304.94140625 0.6953125 C318.40275123 4.51193905 328.43832428 13.32771463 335.640625 25.08203125 C339.74062114 33.88288503 340.4284779 41.98534212 340.36076355 51.61672974 C340.3620783 52.97091351 340.3647136 54.32509652 340.36854553 55.67927551 C340.37523688 59.38355668 340.36328607 63.087575 340.34821819 66.79182282 C340.33506969 70.85406693 340.33950521 74.91629992 340.34167194 78.97855949 C340.34326364 86.85553393 340.32944378 94.73240535 340.31016796 102.60935336 C340.28853024 111.72517466 340.28618165 120.84093448 340.28381348 129.95678711 C340.26807572 154.01287435 340.22619222 178.06893873 340.1875 202.125 C340.125625 255.87375 340.06375 309.6225 340 365 C227.8 365 115.6 365 0 365 C0 244.55 0 124.1 0 0 Z " fill="#14A142" transform="translate(118,15)"/>
<path d="M0 0 C1.1454434 -0.00507454 2.2908868 -0.01014909 3.47104061 -0.0153774 C5.36716348 -0.01612404 5.36716348 -0.01612404 7.30159187 -0.01688576 C8.65355338 -0.02090035 10.00551369 -0.02533857 11.35747254 -0.03016531 C15.08075678 -0.04213657 18.80402806 -0.04778051 22.52732778 -0.05234647 C26.53968676 -0.05830027 30.55203022 -0.06991047 34.56437874 -0.08063698 C44.25696207 -0.10516296 53.94955054 -0.11978681 63.64215535 -0.13269705 C66.37860582 -0.13640832 69.11505579 -0.14038159 71.85150576 -0.14444971 C88.83677446 -0.16968151 105.82204396 -0.19173915 122.80732727 -0.20417786 C126.74178635 -0.20710764 130.6762454 -0.2100693 134.61070442 -0.21308327 C135.58861801 -0.21382932 136.5665316 -0.21457537 137.57407893 -0.21534403 C153.42648802 -0.22800596 169.27878517 -0.26124052 185.13114189 -0.3028851 C201.39779028 -0.3452687 217.66438128 -0.3688686 233.93108475 -0.37409842 C243.06783572 -0.3775162 252.20441161 -0.38931478 261.34110832 -0.42220116 C269.11981034 -0.45015353 276.89830139 -0.46122217 284.67704974 -0.4500057 C288.64738105 -0.44480697 292.61727023 -0.4477838 296.58753777 -0.47247124 C300.22092647 -0.49487592 303.85355321 -0.49429355 307.48695447 -0.47526737 C309.42671398 -0.47112067 311.36647746 -0.4916777 313.30612361 -0.51305425 C322.69195566 -0.42681978 322.69195566 -0.42681978 325.7976408 2.52342415 C327.66814776 5.35799367 328.14959817 6.75826998 328.15342903 10.11992455 C328.16596214 11.08507988 328.17849525 12.05023521 328.19140816 13.04463768 C328.17152084 14.59470009 328.17152084 14.59470009 328.15123177 16.17607689 C328.15364372 17.25271599 328.15605568 18.32935509 328.15854073 19.43861961 C328.1575621 21.71653995 328.14416512 23.99448402 328.11924934 26.2722683 C328.08514796 29.72932622 328.09854007 33.18379666 328.11802864 36.64092064 C328.1111237 38.86098346 328.10144549 41.08103973 328.08873177 43.30107689 C328.09369164 44.32230644 328.0986515 45.343536 328.10376167 46.3957119 C327.94326346 56.36905553 325.45474748 65.15954785 318.44420052 72.48467064 C309.9759408 79.76530856 299.94993207 80.4332244 289.26497078 80.40443993 C288.0308458 80.40897104 286.79672081 80.41350215 285.5251981 80.41817057 C282.11136464 80.42862183 278.69774229 80.43014366 275.28390789 80.42778182 C271.59729767 80.42737288 267.91071862 80.43842026 264.224123 80.44789696 C257.00501676 80.46449248 249.78594319 80.47000589 242.56681947 80.47112171 C236.69562078 80.47207306 230.82443283 80.47618768 224.95323753 80.48252296 C208.29317163 80.50013293 191.63313146 80.50936244 174.97305618 80.50786202 C174.07536975 80.5077821 173.17768332 80.50770219 172.25279427 80.50761986 C171.35400654 80.5075381 170.45521881 80.50745634 169.52919509 80.5073721 C154.9725271 80.5065597 140.41596271 80.52568633 125.85932468 80.55389659 C110.89879875 80.5826598 95.93832328 80.59643493 80.97776902 80.59470904 C72.58420952 80.59404623 64.19075857 80.59949033 55.79722404 80.62106514 C48.64870265 80.63932242 41.50033898 80.64358725 34.3518043 80.63004629 C30.70860533 80.62353891 27.06570854 80.6233178 23.42253876 80.64075279 C19.46208191 80.65951015 15.50206075 80.64687045 11.54158211 80.63149071 C9.83710877 80.6469214 9.83710877 80.6469214 8.09820163 80.66266382 C-5.37998316 80.54756378 -16.73302746 76.56889682 -26.50892448 67.18779564 C-30.44046607 62.94806118 -33.3252681 58.50272888 -35.47767448 53.13701439 C-35.83216667 52.25529564 -36.18665886 51.37357689 -36.55189323 50.46513939 C-39.12509628 41.2146373 -39.0187252 29.98815172 -34.79017448 21.32451439 C-33.73713961 19.56374213 -32.63868717 17.82853765 -31.47767448 16.13701439 C-31.08322136 15.52728783 -30.68876823 14.91756126 -30.28236198 14.28935814 C-25.01152084 7.08341798 -16.80370625 3.46094695 -8.47767448 1.13701439 C-5.37983637 0.10440168 -3.24769104 0.00762612 0 0 Z " fill="#E1E6EC" transform="translate(111.47767448425293,397.8629856109619)"/>
<path d="M0 0 C17.57726213 10.21781033 28.69391392 25.03505324 35.375 44.1875 C40.4784719 63.86301292 37.21647358 83.3431527 28.36328125 101.32421875 C19.04977938 117.132366 4.41717199 129.25023479 -13 135 C-13.77537109 135.25749023 -14.55074219 135.51498047 -15.34960938 135.78027344 C-22.69712441 138.02401351 -29.59208759 138.54288778 -37.25 138.5 C-38.43932129 138.49427979 -39.62864258 138.48855957 -40.85400391 138.48266602 C-50.1377723 138.29440443 -57.55253756 137.0486009 -66 133 C-67.09828125 132.50371094 -68.1965625 132.00742187 -69.328125 131.49609375 C-89.01675406 121.81507354 -101.82643229 105.6052311 -109.02734375 85.0703125 C-114.41096076 65.96715538 -111.68718007 45.4999294 -102.20288086 28.28710938 C-96.87645554 19.08570048 -90.25233119 11.68484928 -82 5 C-81.44183594 4.53207031 -80.88367188 4.06414062 -80.30859375 3.58203125 C-77.78557353 1.65188785 -76.36156061 0.97960937 -73.16015625 1.16015625 C-60.91958935 4.41321173 -50.9694988 19.14484257 -44.828125 29.45703125 C-38.95332089 40.84260246 -36.73463992 52.26271621 -37 65 C-20.12514539 53.51483279 -7.17019229 39.11863936 -2.21875 18.79296875 C-1.70726122 15.86319112 -1.31278216 12.95721317 -1 10 C-0.89042969 9.0203125 -0.78085937 8.040625 -0.66796875 7.03125 C-0.42121797 4.68876258 -0.19732128 2.34708467 0 0 Z " fill="#B144EF" transform="translate(360,167)"/>
<path d="M0 0 C14.23585954 12.51877733 23.74720359 29.57912469 25.34960938 48.62744141 C26.46137116 69.66300864 22.39746097 88.32408833 8.34960938 104.62744141 C2.86276123 110.58934134 -2.71750918 116.34970605 -9.65039062 120.62744141 C-10.31039062 120.62744141 -10.97039062 120.62744141 -11.65039062 120.62744141 C-11.74743286 119.77533081 -11.74743286 119.77533081 -11.84643555 118.90600586 C-14.55405903 95.91328562 -21.17221761 77.94003793 -39.30273438 62.34619141 C-43.91566405 58.64416043 -43.91566405 58.64416043 -49.55273438 57.65478516 C-53.37871988 58.85613495 -56.00110261 60.83442514 -58.96289062 63.43994141 C-59.52830566 63.93204102 -60.0937207 64.42414063 -60.67626953 64.93115234 C-76.27357621 78.93021102 -84.18428033 97.73398977 -85.53710938 118.42431641 C-85.57449219 119.15134766 -85.611875 119.87837891 -85.65039062 120.62744141 C-101.14973189 112.87777077 -113.23296487 97.90047112 -118.86669922 81.68041992 C-125.30952322 62.21105592 -124.39880153 41.7861432 -115.40039062 23.25244141 C-112.1198832 17.09711831 -108.31475891 11.79900313 -103.65039062 6.62744141 C-103.05871094 5.94294922 -102.46703125 5.25845703 -101.85742188 4.55322266 C-75.43014176 -24.12798326 -29.18552016 -24.27233644 0 0 Z " fill="#FDD70C" transform="translate(334.650390625,111.37255859375)"/>
<path d="M0 0 C0.08636719 0.98097656 0.17273438 1.96195313 0.26171875 2.97265625 C2.52318258 25.74090341 11.6148017 43.37187598 28.98046875 58.4296875 C31.10263357 60.16355665 31.10263357 60.16355665 34.1640625 61.75 C37 64 37 64 37.91796875 67.3203125 C38.00691406 68.57585937 38.09585938 69.83140625 38.1875 71.125 C39.889219 88.74391448 47.87751579 106.67496181 61.58398438 118.34912109 C64.17209179 120.41730989 66.82091447 122.35079807 69.53125 124.2578125 C72 126 72 126 74 128 C56.49604342 137.24530483 35.66187489 140.84015893 16.14306641 135.56591797 C-2.66912775 129.52065108 -19.08369874 116.54521357 -28.31933594 99.02856445 C-31.59279339 92.54448419 -34.33577145 86.09704077 -36 79 C-36.16983398 78.39937744 -36.33966797 77.79875488 -36.51464844 77.17993164 C-40.61342233 58.770499 -35.71649638 39.46158746 -26.11181641 23.72070312 C-21.51030177 16.59916708 -9.82265555 0 0 0 Z " fill="#079CFD" transform="translate(212,168)"/>
<path d="M0 0 C0.33 0 0.66 0 1 0 C1.05083907 6.99256271 1.08579201 13.98507748 1.10986328 20.9777832 C1.11990158 23.35507997 1.13353504 25.73236445 1.15087891 28.10961914 C1.17522241 31.53274576 1.18650505 34.95570866 1.1953125 38.37890625 C1.20563507 39.43646622 1.21595764 40.49402618 1.22659302 41.58363342 C1.22674408 42.5841423 1.22689514 43.58465118 1.22705078 44.61547852 C1.231492 45.48817886 1.23593323 46.36087921 1.24050903 47.26002502 C0.94151454 50.66628975 -0.03172895 53.72767729 -1 57 C-22.57458688 57.09338599 -44.1491405 57.16395107 -65.7238884 57.20724869 C-75.74112448 57.22788568 -85.75823508 57.256028 -95.77539062 57.30175781 C-104.50498641 57.34159077 -113.23449133 57.36742453 -121.96417546 57.37635398 C-126.58775023 57.38157474 -131.21106503 57.39386895 -135.83455658 57.42292023 C-140.18477796 57.45003345 -144.53463181 57.45845334 -148.88492966 57.45243073 C-150.48292664 57.4535328 -152.08093569 57.4615112 -153.67885971 57.4768219 C-155.85868686 57.49668683 -158.03712148 57.49195339 -160.21697998 57.48101807 C-162.04766085 57.48654882 -162.04766085 57.48654882 -163.91532516 57.49219131 C-167.60884994 56.90285179 -168.78905294 55.96767512 -171 53 C-171.5 50 -171.5 50 -171 47 C-168.78496176 44.02243791 -167.60407427 43.09590067 -163.89970779 42.50780869 C-162.67187954 42.51149586 -161.44405128 42.51518303 -160.17901611 42.51898193 C-159.49364517 42.51556423 -158.80827423 42.51214653 -158.10213447 42.50862527 C-155.80627049 42.50203813 -153.5115765 42.52403436 -151.21582031 42.54589844 C-149.56993131 42.54702674 -147.9240403 42.54639338 -146.27815247 42.54412842 C-141.80934751 42.54297968 -137.34097109 42.56651474 -132.87226582 42.59442425 C-128.20244322 42.61941131 -123.53261106 42.62177777 -118.86273193 42.62652588 C-110.01940325 42.63896359 -101.17627211 42.67179596 -92.33303046 42.71192384 C-82.26544251 42.7566168 -72.19784518 42.77862236 -62.13018274 42.79870558 C-41.42000855 42.84052789 -20.71002367 42.91170013 0 43 C0 37.72 0 32.44 0 27 C-1.35174442 27.00368717 -2.70348885 27.00737434 -4.09619522 27.01117325 C-36.16733484 27.0977617 -68.23844584 27.1637405 -100.30967577 27.20426132 C-104.25511608 27.20926428 -108.20055615 27.21444156 -112.14599609 27.21972656 C-113.32421976 27.22130043 -113.32421976 27.22130043 -114.52624592 27.22290608 C-127.25293929 27.24032222 -139.97956056 27.27186653 -152.70621112 27.30861118 C-165.76012919 27.34598703 -178.81400943 27.36822873 -191.86797881 27.37635398 C-199.92621973 27.38184874 -207.98425687 27.39921756 -216.04243508 27.43166587 C-222.21632565 27.45526367 -228.39006012 27.45782834 -234.56398964 27.45243073 C-237.10048747 27.45353458 -239.63699274 27.46153619 -242.17344475 27.4768219 C-245.62741289 27.4966225 -249.08049775 27.49197479 -252.53448486 27.48101807 C-253.5461529 27.49266943 -254.55782094 27.5043208 -255.60014558 27.51632524 C-262.34780389 27.45817155 -262.34780389 27.45817155 -265.6228447 25.15743637 C-267.51635036 22.1910912 -267.5755807 20.45348418 -267 17 C-265.6228447 14.84256363 -265.6228447 14.84256363 -263 13 C-259.51623224 12.39870624 -256.06179384 12.47835797 -252.53448486 12.51898193 C-250.91839691 12.51385538 -250.91839691 12.51385538 -249.26966071 12.50862527 C-245.64727947 12.50201893 -242.02563367 12.52406887 -238.40332031 12.54589844 C-235.81163043 12.54702631 -233.21993926 12.54639423 -230.62825012 12.54412842 C-225.04227284 12.5420304 -219.45648236 12.5545866 -213.87055206 12.57707977 C-205.79425473 12.60957988 -197.71804777 12.62000473 -189.64169213 12.62503174 C-176.53858338 12.63378753 -163.43557421 12.66041077 -150.33251953 12.69824219 C-137.60368346 12.73495495 -124.87487442 12.76327029 -112.14599609 12.78027344 C-111.36146715 12.78132433 -110.57693821 12.78237523 -109.76863566 12.78345796 C-105.83290763 12.78867809 -101.89717941 12.79373293 -97.96145105 12.79870558 C-65.30756086 12.84017645 -32.65379541 12.91092979 0 13 C0 8.71 0 4.42 0 0 Z " fill="#CCD4DE" transform="translate(438,403)"/>
<path d="M0 0 C0.73114036 20.63440566 -5.70995903 37.73246631 -19.70703125 52.94140625 C-24.41484101 57.84412791 -29.20007825 62.42132488 -35 66 C-35.66 66 -36.32 66 -37 66 C-37.06469482 65.43192627 -37.12938965 64.86385254 -37.19604492 64.27856445 C-39.9036684 41.28584421 -46.52182698 23.31259653 -64.65234375 7.71875 C-69.26527342 4.01671903 -69.26527342 4.01671903 -74.90234375 3.02734375 C-78.72832925 4.22869355 -81.35071198 6.20698374 -84.3125 8.8125 C-85.16062256 9.55064941 -85.16062256 9.55064941 -86.02587891 10.30371094 C-101.62318559 24.30276962 -109.5338897 43.10654837 -110.88671875 63.796875 C-110.94279297 64.88742188 -110.94279297 64.88742188 -111 66 C-126.49934127 58.25032937 -138.58257424 43.27302972 -144.21630859 27.05297852 C-146.51334492 20.11163782 -148.14300458 14.01341664 -148.0625 6.6875 C-148.05347656 5.61886719 -148.04445312 4.55023438 -148.03515625 3.44921875 C-148.02355469 2.64097656 -148.01195312 1.83273438 -148 1 C-132.20862757 -8.73697272 -111.54481873 -10.97155492 -93.58447266 -6.76025391 C-88.10905299 -5.28745762 -82.91962162 -3.33208477 -77.9296875 -0.63671875 C-73.54617208 0.80966387 -69.47348981 -1.57383017 -65.5 -3.375 C-43.36585218 -12.67619488 -21.35827397 -10.16903953 0 0 Z " fill="#FDBD01" transform="translate(360,166)"/>
<path d="M0 0 C17.07389993 11.02176825 28.2594921 28.77691513 32.5234375 48.41015625 C32.8125 50.375 32.8125 50.375 33 54 C33.061875 54.78246094 33.12375 55.56492188 33.1875 56.37109375 C33.22875 57.17675781 33.27 57.98242188 33.3125 58.8125 C33.36857422 59.90498047 33.36857422 59.90498047 33.42578125 61.01953125 C33 63 33 63 31.390625 64.6015625 C15.31697038 74.00412517 -6.18408531 75.61283921 -24 71 C-37.41044959 66.61494818 -37.41044959 66.61494818 -41 63 C-44.17760254 48.70078859 -36.49820594 32.80509807 -29 21 C-24.20713585 14.02340485 -18.5645895 8.31768423 -12 3 C-11.44183594 2.53207031 -10.88367188 2.06414062 -10.30859375 1.58203125 C-6.56595699 -1.28113473 -4.44710394 -1.18186322 0 0 Z " fill="#E3E7ED" transform="translate(290,169)"/>
<path d="M0 0 C0.66644531 0.32613281 1.33289063 0.65226563 2.01953125 0.98828125 C20.18905062 9.6029205 39.60752108 11.69320482 59 6 C62.49329841 4.74599544 65.93121429 3.41962806 69.35546875 1.98828125 C72 1 72 1 75 1 C72.70947601 25.10178225 63.49149788 43.38731763 45.0859375 59.37109375 C42.4956748 61.39382698 40.03282874 62.75576257 37 64 C19.02061367 52.77882271 6.41078543 37.1146233 1.125 16.3125 C-0.01701041 10.82283592 -0.34069982 5.5900008 0 0 Z " fill="#8C32D4" transform="translate(249,232)"/>
</svg>
